<?xml version="1.0" standalone="no"?><!DOCTYPE svg PUBLIC "-//W3C//DTD SVG 1.1//EN" "http://www.w3.org/Graphics/SVG/1.1/DTD/svg11.dtd"><svg t="1781870653589" class="icon" viewBox="0 0 1024 1024" version="1.1" xmlns="http://www.w3.org/2000/svg" p-id="13462" xmlns:xlink="http://www.w3.org/1999/xlink" width="200" height="200"><path d="M512 1015.748c-21.75599967 0-39.36800011-17.64-39.36800011-39.36800011v-190.95999989a39.36800011 39.36800011 0 0 1 78.73600022 0v190.95999989c0 21.75599967-17.64 39.36800011-39.36800011 39.36800011z" p-id="13463"></path><path d="M607.48000044 920.26799956h-190.96000088a39.36800011 39.36800011 0 1 1 0-78.73599923h190.96000088a39.36800011 39.36800011 0 0 1 0 78.73599923z m369.15199945-506.71599989H218.33600033c-55.83199978 0-108.44399967-20.85999989-148.09200033-58.74399956C30.11999989 316.448 8 265.292 8 210.77600033 8 156.28800022 30.11999989 105.15999978 70.244 66.79999967 109.92000022 28.85999989 162.50399956 8 218.36399989 8h758.24000044a39.36800011 39.36800011 0 0 1 17.05199934 74.87199956c-26.964 12.93599967-48.04800033 31.5-62.66399934 55.188a139.07600044 139.07600044 0 0 0 0 145.43200055c14.616 23.688 35.70000033 42.27999989 62.66399934 55.188a39.36800011 39.36800011 0 0 1-17.02399978 74.87199956zM218.33600033 86.76399978c-72.51999989 0-131.60000011 55.63599989-131.60000011 124.04000011 0 68.37599967 59.08000022 124.01199956 131.60000011 124.01200055h652.176a217.81199967 217.81199967 0 0 1 0-248.08000022H218.33600033z" p-id="13464"></path><path d="M805.66399967 920.51999956H775.47999978a39.36800011 39.36800011 0 1 1 0-78.76399978h30.18399989c72.51999989 0 131.60000011-55.63599989 131.60000011-124.04000011 0-68.37599967-59.08000022-124.01199956-131.60000011-124.01199956H153.48799967a217.14000033 217.14000033 0 0 1 38.808 124.04000011 217.14000033 217.14000033 0 0 1-38.808 124.04000011H248.52000022a39.36800011 39.36800011 0 0 1 0 78.73599923H47.36800011A39.36800011 39.36800011 0 0 1 30.40000044 845.648c26.93600044-12.93599967 48.01999978-31.5 62.63599978-55.188 13.43999967-21.86799989 20.55199978-47.04000033 20.52400022-72.71599978a138.43199967 138.43199967 0 0 0-20.52400022-72.71599978c-14.616-23.71599956-35.70000033-42.27999989-62.63599978-55.188a39.36800011 39.36800011 0 0 1 16.99599923-74.90000011h758.29600055c55.86000033 0 108.44399967 20.88800044 148.11999989 58.79999967C993.88000011 612.07199956 1016 663.2 1016 717.71599967c0 54.48800011-22.11999989 105.64400011-62.244 144.00400022-39.64799967 37.91200022-92.232 58.77200011-148.11999989 58.77200011z" p-id="13465"></path></svg>